<?xml version="1.0" encoding="UTF-8" standalone="no"?>
<svg
   width="32"
   height="32"
   version="1"
   id="svg14"
   sodipodi:docname="folder.svg"
   inkscape:version="1.1.1 (3bf5ae0d25, 2021-09-20)"
   inkscape:export-filename="folder-recent.svg"
   inkscape:export-xdpi="384"
   inkscape:export-ydpi="384"
   xml:space="preserve"
   xmlns:inkscape="http://www.inkscape.org/namespaces/inkscape"
   xmlns:sodipodi="http://sodipodi.sourceforge.net/DTD/sodipodi-0.dtd"
   xmlns="http://www.w3.org/2000/svg"
   xmlns:svg="http://www.w3.org/2000/svg"><defs
     id="defs18" /><sodipodi:namedview
     id="namedview16"
     pagecolor="#505050"
     bordercolor="#ffffff"
     borderopacity="1"
     inkscape:pageshadow="0"
     inkscape:pageopacity="0"
     inkscape:pagecheckerboard="1"
     showgrid="false"
     inkscape:zoom="23.03125"
     inkscape:cx="16"
     inkscape:cy="15.97829"
     inkscape:current-layer="svg14"
     inkscape:showpageshadow="2"
     inkscape:deskcolor="#505050" /><g
     id="g972"
     transform="translate(2.8234837,-0.82487911)"
     style="display:none;opacity:1"
     inkscape:label="Folder Drag Accept"><path
       style="display:inline;opacity:0.1;fill:#000000;fill-opacity:1;stroke:none;enable-background:new"
       d="m -0.74168,27.34862 v 1 c 0,0.83008 0.66796,1.49805 1.49805,1.49805 h 24.97265 c 0.83008,0 1.49805,-0.66797 1.49805,-1.49805 v -1 c 0,0.83008 -0.66797,1.49805 -1.49805,1.49805 H 0.75637 c -0.83009,0 -1.49805,-0.66797 -1.49805,-1.49805 z"
       id="path4818"
       inkscape:connector-curvature="0" /><path
       style="display:inline;fill:#737373;fill-opacity:1;stroke:none;enable-background:new"
       d="M -0.74168,21.35494 V 5.37258 c 0,-0.83008 0.69118,-1.69206 1.49834,-1.49834 h 10.98788 l 2.99669,2.99669 H 25.7291 c 0.83008,0 1.49834,0.66826 1.49834,1.49835 v 12.98566 c 0,0.83009 -0.66826,1.49835 -1.49834,1.49835 H 0.75666 c -0.83008,0 -1.49834,-0.66826 -1.49834,-1.49835 z"
       id="path4860"
       inkscape:connector-curvature="0"
       sodipodi:nodetypes="sssccssssss" /><path
       sodipodi:nodetypes="sssccssssss"
       inkscape:connector-curvature="0"
       id="path4864"
       d="M 27.22744,27.34833 V 12.36928 c 0,-0.83009 -0.66825,-1.49835 -1.49834,-1.49835 H 14.74123 l -2.99669,2.99669 H 0.75666 c -0.83008,0 -1.49834,0.66826 -1.49834,1.49835 v 11.98236 c 0,0.83008 0.66826,1.49834 1.49834,1.49834 H 25.7291 c 0.83008,0 1.49834,-0.66826 1.49834,-1.49834 z"
       style="display:inline;fill:#ababab;fill-opacity:1;stroke:none;enable-background:new" /><path
       style="display:inline;opacity:0.26;fill:#ffffff;fill-opacity:1;stroke:none;enable-background:new"
       d="m 14.72707,10.87792 -2.96875,3 h -11 c -0.83008,0 -1.5,0.66991 -1.5,1.5 v 1 c 0,-0.83009 0.66992,-1.5 1.5,-1.5 h 11 l 2.96875,-3 h 11 c 0.82668,-0.0752 1.5,0.66991 1.5,1.5 v -1 c 0,-0.83009 -0.67332,-1.57515 -1.5,-1.5 z"
       id="path4868"
       inkscape:connector-curvature="0"
       sodipodi:nodetypes="ccsscsccccscc" /><path
       sodipodi:nodetypes="ccsscsccccscc"
       inkscape:connector-curvature="0"
       id="path4940"
       d="m 14.72707,9.87767 -2.96875,3 h -11 c -0.83008,0 -1.5,0.66991 -1.5,1.5 v 1 c 0,-0.83009 0.66992,-1.5 1.5,-1.5 h 11 l 2.96875,-3 h 11 c 0.82668,-0.0752 1.5,0.66991 1.5,1.5 v -1 c 0,-0.83009 -0.67332,-1.57515 -1.5,-1.5 z"
       style="display:inline;opacity:0.05;fill:#000000;fill-opacity:1;stroke:none;enable-background:new" /><path
       sodipodi:nodetypes="ccsscsccccscc"
       inkscape:connector-curvature="0"
       id="path4944"
       d="m 11.75832,3.87767 2.96875,3 h 11 c 0.83008,0 1.5,0.66991 1.5,1.5 v 1 c 0,-0.83009 -0.66992,-1.5 -1.5,-1.5 h -11 l -2.96875,-3 h -11 c -0.82668,-0.0752 -1.5,0.66991 -1.5,1.5 v -1 c 0,-0.83009 0.67332,-1.57515 1.5,-1.5 z"
       style="display:inline;opacity:0.2;fill:#ffffff;fill-opacity:1;stroke:none;enable-background:new" /></g><g
     id="g6477"
     inkscape:label="Folder"
     style="display:inline"><path
       sodipodi:nodetypes="csccccccssc"
       inkscape:connector-curvature="0"
       id="path4811"
       d="M 29.999717,27.000172 V 9.0017229 c 0,-1.9998277 -1.999924,-1.9998277 -1.999924,-1.9998277 L 18.002405,7.0261931 15.00252,10.025935 4.0029405,9.999637 c -1.9999206,0 -1.9999206,1.999828 -1.9999206,1.999828 l -0.00223,15.000707 c 0,0 7e-6,1.999828 1.9999235,1.999828 H 27.999796 c 1.994054,0 1.999924,-1.999828 1.999924,-1.999828 z"
       style="display:inline;opacity:0.1;fill:#000000;fill-opacity:1;stroke:none;stroke-width:0.999938;enable-background:new" /><path
       sodipodi:nodetypes="csccccccssc"
       inkscape:connector-curvature="0"
       id="path4809"
       d="M 2.00023,22.998837 V 5.0003877 C 2.00023,3.00056 4.0001536,3.00056 4.0001536,3.00056 L 15.00252,3 l 2.999326,2.9991816 9.995158,-9.999e-4 c 1.999923,0 1.999923,1.9998277 1.999923,1.9998277 l 0.002,15.0008276 c 0,0 -10e-6,1.999828 -1.999924,1.999828 H 3.9999236 C 2.0058698,24.998665 2,22.998837 2,22.998837 Z"
       style="display:inline;fill:#737373;fill-opacity:1;stroke:none;stroke-width:0.999938;enable-background:new" /><rect
       style="display:inline;opacity:1;fill:#ffffff;fill-opacity:1;stroke-width:1.00961"
       id="rect2475"
       width="23.292574"
       height="12.705391"
       x="3.8521249"
       y="7.1737709"
       inkscape:transform-center-x="-0.97950367"
       inkscape:transform-center-y="0.0012375975"
       ry="0.88106608" /><rect
       style="opacity:0.05;fill:#000000;fill-opacity:1;stroke-width:0.99315"
       id="rect2485"
       width="25.096483"
       height="11.410909"
       x="2.0482166"
       y="8.4682531"
       inkscape:transform-center-x="-1.0553624"
       inkscape:transform-center-y="0.0011116482"
       ry="1.861586" /><path
       style="display:inline;opacity:1;fill:#ababab;fill-opacity:1;stroke:none;stroke-width:0.999938;enable-background:new"
       d="M 29.999717,26.000258 V 8.0018091 c 0,-1.9998277 -1.999924,-1.9998277 -1.999924,-1.9998277 L 18.002405,6.0262793 15.00252,9.0260208 4.0029405,8.9997231 c -1.9999206,0 -1.9999206,1.9998279 -1.9999206,1.9998279 l -0.00223,15.000707 c 0,0 7e-6,1.999828 1.9999235,1.999828 H 27.999796 c 1.994054,0 1.999924,-1.999828 1.999924,-1.999828 z"
       id="path4807"
       inkscape:connector-curvature="0"
       sodipodi:nodetypes="csccccccssc" /><path
       style="display:inline;opacity:0.268005;fill:#ffffff;fill-opacity:1;stroke:none;stroke-width:0.999938;enable-background:new"
       d="M 28.000076,6.0028013 18.002408,6.0262393 15.002523,9.0259808 4.0029435,9.000583 c -1.9999206,0 -1.9999236,1.999828 -1.9999236,1.999828 v 0.999914 c 0,0 3e-6,-1.999828 1.9999236,-1.999828 l 10.9995795,0.0254 2.999885,-2.9997417 9.997668,-0.023398 c 0,0 1.999924,0 1.999924,1.9998278 V 8.002669 C 30,6.0028413 28.000076,6.0028413 28.000076,6.0028413 Z"
       id="path4815"
       inkscape:connector-curvature="0" /></g><rect
     style="display:none;opacity:0.385609;fill:#107540;stroke-width:1.16667"
     id="rect6959"
     width="11.707503"
     height="12.037504"
     x="15.470501"
     y="13.527934"
     ry="0"
     rx="0"
     inkscape:label="Icon Template" /><path
     style="color:#000000;display:none;overflow:visible;visibility:visible;fill:#4a4a4a;fill-opacity:1;fill-rule:nonzero;stroke:none;stroke-width:0.855484;marker:none;enable-background:accumulate"
     d="m 16.77548,13.560312 v 11.976777 h 9.410324 v -7.699356 l -4.27742,-4.277421 z m 5.132904,1.209708 3.067713,3.067713 h -3.067713 z"
     id="path3028"
     inkscape:connector-curvature="0"
     sodipodi:nodetypes="cccccccccc"
     inkscape:label="documents" /><path
     style="display:none;fill:#4a4a4a;fill-opacity:1;stroke:none;stroke-width:0.853724"
     d="m 19.636125,13.576466 v 6.829784 h -3.414893 l 5.122339,5.122339 5.122338,-5.122339 h -3.414892 v -6.829784 z"
     id="rect2883"
     inkscape:connector-curvature="0"
     sodipodi:nodetypes="cccccccc"
     inkscape:label="download" /><path
     style="display:none;opacity:1;fill:#4a4a4a;fill-opacity:1;stroke:#4b4b4b;stroke-width:0;stroke-linejoin:miter;stroke-miterlimit:4;stroke-dasharray:none;stroke-dashoffset:0;stroke-opacity:1"
     d="m 18.94548,13.633603 v 0.885494 0.931631 0.908563 5.816927 a 2.2714068,1.8171255 0 0 0 -1.362844,-0.365551 2.2714068,1.8171255 0 0 0 -2.271406,1.817126 2.2714068,1.8171255 0 0 0 2.271406,1.817125 2.2714068,1.8171255 0 0 0 2.271407,-1.817125 v -7.268502 h 6.359939 v 4.908365 a 2.2714068,1.8171255 0 0 0 -1.362844,-0.365552 2.2714068,1.8171255 0 0 0 -2.271407,1.817126 2.2714068,1.8171255 0 0 0 2.271407,1.817125 2.2714068,1.8171255 0 0 0 2.271407,-1.817125 v -6.359939 -0.908563 -1.817125 h -0.818061 z"
     id="rect4067-4-5"
     inkscape:connector-curvature="0"
     inkscape:label="music" /><path
     style="display:none;opacity:1;fill:#4a4a4a;fill-opacity:1;stroke:#102b68;stroke-width:0;stroke-linecap:butt;stroke-linejoin:miter;stroke-miterlimit:4;stroke-dasharray:none;stroke-dashoffset:0;stroke-opacity:1"
     d="m 18.808917,14.767877 -0.83604,1.672079 h -1.672078 c -0.463157,0 -0.836039,0.372883 -0.836039,0.83604 v 5.852275 c 0,0.463166 0.372882,0.836039 0.836039,0.836039 h 10.032472 c 0.463174,0 0.836039,-0.372873 0.836039,-0.836039 v -5.852275 c 0,-0.463157 -0.373443,-0.81291 -0.836039,-0.83604 h -1.672079 l -0.836039,-1.672079 h -2.508118 z m 2.508118,2.508119 c 1.3852,0 2.508118,1.122926 2.508118,2.508117 0,1.3852 -1.122918,2.508118 -2.508118,2.508118 -1.385191,0 -2.508118,-1.122918 -2.508118,-2.508118 0,-1.385191 1.122927,-2.508117 2.508118,-2.508117 z"
     id="rect3990-7"
     inkscape:connector-curvature="0"
     sodipodi:nodetypes="ccssssssssccccsssss"
     inkscape:label="pictures" /><path
     id="path8192"
     style="color:#000000;display:none;overflow:visible;visibility:visible;fill:#4a4a4a;fill-opacity:1;fill-rule:nonzero;stroke:none;stroke-width:1.08086;marker:none;enable-background:new"
     d="m 24.937708,13.806927 a 2.1279286,2.1279286 0 0 0 -2.127929,2.127928 2.1279286,2.1279286 0 0 0 0.0266,0.316387 l -3.571277,1.730337 a 2.1279286,2.1279286 0 0 0 -1.472749,-0.590783 2.1279286,2.1279286 0 0 0 -2.127928,2.127928 2.1279286,2.1279286 0 0 0 2.127928,2.127929 2.1279286,2.1279286 0 0 0 1.474153,-0.59917 l 3.558675,1.796139 a 2.1279286,2.1279286 0 0 0 0,0.0014 2.1279286,2.1279286 0 0 0 -0.0154,0.257588 2.1279286,2.1279286 0 0 0 2.127928,2.127929 2.1279286,2.1279286 0 0 0 2.127929,-2.127929 2.1279286,2.1279286 0 0 0 -2.127929,-2.127928 2.1279286,2.1279286 0 0 0 -1.450342,0.573987 l -3.579689,-1.810175 a 2.1279286,2.1279286 0 0 0 0.0126,-0.219802 2.1279286,2.1279286 0 0 0 -0.0154,-0.254789 l 3.604881,-1.754138 a 2.1279286,2.1279286 0 0 0 1.427947,0.552987 2.1279286,2.1279286 0 0 0 2.127928,-2.127929 2.1279286,2.1279286 0 0 0 -2.127928,-2.127929 z"
     inkscape:label="publicshare" /><path
     id="path2"
     style="color:#bebebe;display:none;fill:#4a4a4a;fill-opacity:1;stroke-width:0.712953;marker:none"
     d="m 21.936359,14.343062 c -2.641492,0 -4.814532,1.739605 -5.051945,4.27772 h -1.282475 l 1.892384,2.376973 1.892393,-2.376973 h -1.235135 c 0.233849,-1.850828 1.842664,-3.037018 3.786169,-3.037018 2.103213,0 3.809846,1.679555 3.809846,3.749972 0,2.07041 -1.707312,3.749964 -3.811237,3.749964 -1.140725,0 -2.165653,-0.494768 -2.864347,-1.278304 l -0.927396,0.845242 a 5.0940527,5.0940527 0 0 0 3.791743,1.673772 c 2.800481,0 5.072836,-2.235829 5.072836,-4.990674 0,-2.754852 -2.272355,-4.990674 -5.072836,-4.990674 z M 21.7804,16.2452 21.305567,19.571848 23.68254,21.472597 V 20.997755 L 22.256633,19.097014 V 16.2452 Z"
     inkscape:label="recent" /><path
     id="path850-3"
     style="display:inline;opacity:1;fill:#4a4a4a;fill-opacity:1;stroke:none;stroke-width:0.961662px;stroke-linecap:butt;stroke-linejoin:miter;stroke-opacity:1"
     d="m 21.330505,14.6925 c -2.300414,0.0026 -4.405133,0.957517 -5.724895,2.456747 l 1.279086,1.607779 c 0.942416,-1.474244 2.730115,-2.13736 4.445809,-2.139324 1.716011,8.98e-4 3.498847,0.665224 4.442053,2.139324 l 1.279086,-1.607779 C 25.92571,15.496075 23.630637,14.693772 21.330505,14.6925 Z m 0,2.88123 a 4.1249769,3.3081907 0 0 0 -3.786545,1.998455 l 1.04994,1.312894 a 3.8375998,4.5546652 0 0 1 2.736605,-1.369242 3.8375998,4.5546652 0 0 1 2.738483,1.365485 l 1.046184,-1.307259 A 4.1249769,3.3081907 0 0 0 21.330505,17.57373 Z m 0.0037,2.884987 c -0.849147,0 -1.840998,0.732938 -2.188157,1.115678 l 2.1844,2.730971 2.182523,-2.730971 C 23.166777,21.172421 22.18528,20.458717 21.334209,20.458717 Z"
     inkscape:label="gtk-network" /><path
     id="path5079"
     style="color:#000000;font-style:normal;font-variant:normal;font-weight:normal;font-stretch:normal;font-size:medium;line-height:normal;font-family:Sans;-inkscape-font-specification:Sans;text-indent:0;text-align:start;text-decoration:none;text-decoration-line:none;letter-spacing:normal;word-spacing:normal;text-transform:none;writing-mode:lr-tb;direction:ltr;baseline-shift:baseline;text-anchor:start;display:none;overflow:visible;visibility:visible;fill:#4a4a4a;fill-opacity:1;stroke:none;stroke-width:1.18487;marker:none;enable-background:new"
     d="m 20.222443,14.241511 c -2.30841,0 -4.199199,1.888952 -4.199199,4.194733 0,2.305781 1.890789,4.19474 4.199199,4.19474 0.879744,0 1.698707,-0.273996 2.37573,-0.741301 l 2.810385,2.810385 a 0.76631349,0.76631349 0 1 0 1.071757,-1.095574 l -2.798481,-2.798473 c 0.466703,-0.675734 0.741302,-1.492198 0.741302,-2.369777 0,-2.305781 -1.89229,-4.194733 -4.200693,-4.194733 z m 0,1.530229 c 1.48415,0 2.667484,1.182031 2.667484,2.664504 0,1.482466 -1.183334,2.664511 -2.667484,2.664511 -1.484158,0 -2.667484,-1.182045 -2.667484,-2.664511 0,-1.482473 1.183326,-2.664504 2.667484,-2.664504 z"
     inkscape:label="search" /><path
     style="color:#000000;display:none;overflow:visible;visibility:visible;fill:#4a4a4a;fill-opacity:1;fill-rule:nonzero;stroke:none;stroke-width:0.749393;marker:none;enable-background:accumulate"
     d="m 16.932631,13.543275 v 8.992717 h 0.749393 V 21.7866 h 0.749393 v 0.749392 H 19.18081 V 21.7866 h 0.749394 v 0.749392 h 0.749392 V 21.7866 h 0.749394 v 0.749392 h 0.749393 V 21.7866 h 0.749392 v 0.749392 h 0.749394 V 21.7866 h 0.749393 v 0.749392 h 0.749393 V 21.7866 h 0.749393 v -4.496359 l -3.746965,-3.746966 z m 8.243324,8.992717 v 0.749394 h 0.749393 v -0.749394 z m 0,0.749394 h -0.749393 v 0.749393 h 0.749393 z m 0,0.749393 v 0.749392 h 0.749393 v -0.749392 z m 0,0.749392 h -0.749393 v 0.749394 h 0.749393 z m -0.749393,0 v -0.749392 h -0.749393 v 0.749392 z m -0.749393,0 h -0.749394 v 0.749394 h 0.749394 z m -0.749394,0 v -0.749392 h -0.749392 v 0.749392 z m -0.749392,0 H 21.42899 v 0.749394 h 0.749393 z m -0.749393,0 v -0.749392 h -0.749394 v 0.749392 z m -0.749394,0 h -0.749392 v 0.749394 h 0.749392 z m -0.749392,0 V 24.034779 H 19.18081 v 0.749392 z m -0.749394,0 h -0.749393 v 0.749394 h 0.749393 z m -0.749393,0 v -0.749392 h -0.749393 v 0.749392 z m -0.749393,0 h -0.749393 v 0.749394 h 0.749393 z m 0,-0.749392 v -0.749393 h -0.749393 v 0.749393 z m 0,-0.749393 h 0.749393 v -0.749394 h -0.749393 z m 0.749393,0 v 0.749393 h 0.749393 v -0.749393 z m 0.749393,0 h 0.749394 V 22.535992 H 19.18081 Z m 0.749394,0 v 0.749393 h 0.749392 v -0.749393 z m 0.749392,0 h 0.749394 v -0.749394 h -0.749394 z m 0.749394,0 v 0.749393 h 0.749393 v -0.749393 z m 0.749393,0 h 0.749392 v -0.749394 h -0.749392 z m 0.749392,0 v 0.749393 h 0.749394 v -0.749393 z m 0.749394,0 h 0.749393 v -0.749394 h -0.749393 z m -1.498786,-8.682422 2.687277,2.687277 h -2.687277 z"
     id="path3028-0"
     inkscape:label="templates" /><path
     style="display:none;fill:#4a4a4a;fill-opacity:1;stroke:#4b4b4b;stroke-width:0;stroke-linejoin:miter;stroke-miterlimit:4;stroke-dasharray:none;stroke-dashoffset:0;stroke-opacity:1"
     d="m 16.597697,13.627629 v 11.820867 h 1.576114 0.788058 4.728348 0.788057 1.576116 V 13.627629 h -1.576116 -0.788057 -4.728348 -0.788058 z m 2.364172,0.788058 h 4.728348 v 4.728346 h -4.728348 z m -1.576115,0.788057 h 0.788057 v 0.788059 h -0.788057 z m 7.09252,0 h 0.788059 v 0.788059 h -0.788059 z m -7.09252,1.576116 h 0.788057 v 0.788057 h -0.788057 z m 7.09252,0 h 0.788059 v 0.788057 h -0.788059 z m -7.09252,1.576115 h 0.788057 v 0.788058 h -0.788057 z m 7.09252,0 h 0.788059 v 0.788058 h -0.788059 z m -7.09252,1.576116 h 0.788057 v 0.788058 h -0.788057 z m 1.576115,0 h 4.728348 v 4.728348 h -4.728348 z m 5.516405,0 h 0.788059 v 0.788058 h -0.788059 z m -7.09252,1.576117 h 0.788057 v 0.788057 h -0.788057 z m 7.09252,0 h 0.788059 v 0.788057 h -0.788059 z m -7.09252,1.576115 h 0.788057 v 0.788057 h -0.788057 z m 7.09252,0 h 0.788059 v 0.788057 h -0.788059 z"
     id="rect3793-0"
     inkscape:connector-curvature="0"
     sodipodi:nodetypes="ccccccccccccccccccccccccccccccccccccccccccccccccccccccccccccccccccccccccccccccccccc"
     inkscape:label="videos" /><path
     style="color:#bebebe;display:none;overflow:visible;visibility:visible;fill:#4a4a4a;fill-opacity:1;fill-rule:nonzero;stroke:none;stroke-width:0.709993;marker:none;enable-background:accumulate"
     d="m 21.307799,13.785084 a 5.6799455,5.6799455 0 0 0 -0.58103,0.02912 c -0.572828,0.05817 -1.119724,0.201833 -1.629379,0.417399 a 5.6799455,5.6799455 0 0 0 -0.0014,0.0014 c -0.174292,0.07379 -0.344044,0.155269 -0.508923,0.245447 a 5.6799455,5.6799455 0 0 0 -0.119256,0.0735 c -0.116663,0.0676 -0.234073,0.135302 -0.34529,0.210779 a 5.6799455,5.6799455 0 0 0 -0.226034,0.169178 c -0.07392,0.05573 -0.149429,0.108595 -0.220485,0.167792 a 5.6799455,5.6799455 0 0 0 -0.210779,0.191366 c -0.06612,0.0609 -0.133756,0.120489 -0.196912,0.184431 a 5.6799455,5.6799455 0 0 0 -0.183045,0.201072 c -0.06432,0.07162 -0.130708,0.141486 -0.191366,0.216326 a 5.6799455,5.6799455 0 0 0 -0.162244,0.217713 c -0.0562,0.07653 -0.112631,0.152204 -0.165018,0.23158 a 5.6799455,5.6799455 0 0 0 -0.124804,0.203846 c -0.05914,0.09836 -0.117327,0.197413 -0.170564,0.299529 a 5.6799455,5.6799455 0 0 0 -0.08182,0.169177 c -0.05234,0.109102 -0.102929,0.218596 -0.148378,0.331423 a 5.6799455,5.6799455 0 0 0 -0.07627,0.206619 c -0.03853,0.107598 -0.07605,0.215386 -0.108163,0.325876 a 5.6799455,5.6799455 0 0 0 -0.05547,0.213552 c -0.02814,0.11312 -0.05364,0.226831 -0.07488,0.342517 a 5.6799455,5.6799455 0 0 0 -0.03467,0.220485 c -0.01528,0.10678 -0.02956,0.213107 -0.03883,0.321716 a 5.6799455,5.6799455 0 0 0 -0.02497,0.48812 5.6799455,5.6799455 0 0 0 0.02913,0.574097 c 2.29e-4,0.0022 -2.31e-4,0.0047 0,0.0069 0.05817,0.572829 0.201833,1.119724 0.417398,1.629378 a 5.6799455,5.6799455 0 0 0 0.0014,0.0014 c 0.07378,0.174291 0.155268,0.344043 0.245446,0.508922 a 5.6799455,5.6799455 0 0 0 0.07349,0.119221 c 0.06761,0.116662 0.135302,0.234071 0.21078,0.345288 a 5.6799455,5.6799455 0 0 0 0.169178,0.226034 c 0.05573,0.07393 0.108595,0.14943 0.167791,0.220486 a 5.6799455,5.6799455 0 0 0 0.191365,0.210778 c 0.0609,0.06612 0.120491,0.133758 0.184432,0.196914 a 5.6799455,5.6799455 0 0 0 0.201073,0.183045 c 0.07162,0.06432 0.141485,0.130707 0.216326,0.191365 a 5.6799455,5.6799455 0 0 0 0.217712,0.162244 c 0.07653,0.0562 0.152204,0.112631 0.23158,0.165018 a 5.6799455,5.6799455 0 0 0 0.203847,0.124804 c 0.09836,0.05914 0.197412,0.117326 0.299528,0.170565 a 5.6799455,5.6799455 0 0 0 0.169178,0.08182 c 0.1091,0.05234 0.218596,0.102929 0.331422,0.148379 a 5.6799455,5.6799455 0 0 0 0.206619,0.07626 c 0.107599,0.03853 0.215387,0.07605 0.325876,0.108163 a 5.6799455,5.6799455 0 0 0 0.213552,0.05547 c 0.11312,0.02814 0.226831,0.05364 0.342517,0.07488 a 5.6799455,5.6799455 0 0 0 0.220487,0.03467 c 0.106779,0.01529 0.213104,0.02956 0.321715,0.03883 a 5.6799455,5.6799455 0 0 0 0.488121,0.02496 c 0.191367,0 0.380657,-0.0093 0.567162,-0.02773 a 5.6799455,5.6799455 0 0 0 0.01387,-0.0014 c 0.572829,-0.05817 1.119725,-0.201833 1.629379,-0.417398 5.71e-4,-2.42e-4 7.81e-4,-0.0011 0.0014,-0.0014 0.174291,-0.07379 0.344042,-0.155269 0.508921,-0.245447 9.23e-4,-4.95e-4 0.0018,-9.23e-4 0.0027,-0.0014 a 5.6799455,5.6799455 0 0 0 0.116455,-0.07201 c 0.116663,-0.06761 0.234073,-0.135301 0.34529,-0.21078 a 5.6799455,5.6799455 0 0 0 0.226033,-0.169177 c 0.07393,-0.05573 0.149429,-0.108595 0.220486,-0.167792 a 5.6799455,5.6799455 0 0 0 0.210779,-0.191366 c 0.06612,-0.0609 0.133756,-0.120489 0.196912,-0.184431 a 5.6799455,5.6799455 0 0 0 0.183046,-0.201072 c 0.06432,-0.07162 0.130707,-0.141486 0.191365,-0.216326 a 5.6799455,5.6799455 0 0 0 0.162244,-0.217714 c 0.0562,-0.07653 0.112631,-0.152203 0.165018,-0.231579 a 5.6799455,5.6799455 0 0 0 0.124804,-0.203846 c 0.05914,-0.09836 0.117327,-0.197413 0.170564,-0.299528 a 5.6799455,5.6799455 0 0 0 0.08183,-0.169232 c 0.05234,-0.1091 0.102928,-0.218596 0.148379,-0.331423 a 5.6799455,5.6799455 0 0 0 0.07626,-0.206618 c 0.03853,-0.107599 0.07605,-0.215386 0.108163,-0.325876 a 5.6799455,5.6799455 0 0 0 0.05547,-0.213553 c 0.02814,-0.113119 0.05364,-0.22683 0.07488,-0.342515 a 5.6799455,5.6799455 0 0 0 0.03467,-0.220487 c 0.01529,-0.10678 0.02956,-0.213106 0.03883,-0.321716 a 5.6799455,5.6799455 0 0 0 0.02496,-0.48812 c 0,-0.191368 -0.0093,-0.380658 -0.02773,-0.567162 a 5.6799455,5.6799455 0 0 0 -0.0014,-0.01387 c -0.05817,-0.57283 -0.201833,-1.119725 -0.417397,-1.629379 -2.43e-4,-5.72e-4 -0.0011,-7.82e-4 -0.0014,-0.0014 -0.07379,-0.174289 -0.155268,-0.344042 -0.245447,-0.508921 -4.94e-4,-9.23e-4 -9.23e-4,-0.0018 -0.0014,-0.0027 a 5.6799455,5.6799455 0 0 0 -0.07201,-0.116482 c -0.06761,-0.116663 -0.135302,-0.234073 -0.21078,-0.34529 A 5.6799455,5.6799455 0 0 0 25.84091,16.053765 c -0.05573,-0.07393 -0.108595,-0.14943 -0.167791,-0.220487 a 5.6799455,5.6799455 0 0 0 -0.191328,-0.210749 c -0.0609,-0.06612 -0.120489,-0.133756 -0.18443,-0.196912 a 5.6799455,5.6799455 0 0 0 -0.201073,-0.183045 c -0.07162,-0.06432 -0.141486,-0.130708 -0.216326,-0.191366 a 5.6799455,5.6799455 0 0 0 -0.217714,-0.162244 c -0.07653,-0.0562 -0.152203,-0.11263 -0.231579,-0.165018 A 5.6799455,5.6799455 0 0 0 24.226823,14.59914 C 24.128463,14.54 24.02941,14.481813 23.927295,14.428576 a 5.6799455,5.6799455 0 0 0 -0.169179,-0.08182 c -0.1091,-0.05234 -0.218595,-0.102928 -0.331421,-0.148377 a 5.6799455,5.6799455 0 0 0 -0.20662,-0.07627 c -0.107599,-0.03853 -0.215386,-0.07605 -0.325875,-0.108164 a 5.6799455,5.6799455 0 0 0 -0.213561,-0.05556 c -0.113118,-0.02814 -0.22683,-0.05364 -0.342515,-0.07488 a 5.6799455,5.6799455 0 0 0 -0.220487,-0.03467 c -0.10678,-0.01529 -0.213106,-0.02956 -0.321715,-0.03883 a 5.6799455,5.6799455 0 0 0 -0.488121,-0.02497 z m 0.416012,1.440787 a 4.2599591,4.2599591 0 0 1 0.110936,0.01525 l -0.105389,0.0527 -0.02219,-0.02219 z m 0.227419,0.03328 a 4.2599591,4.2599591 0 0 1 1.153739,0.34945 v 0.01803 l -0.377183,0.24406 0.08875,0.354996 0.199685,-0.155311 0.133124,0.155311 0.155311,0.08875 0.08875,-0.266248 -0.04438,-0.15531 0.04438,-0.110937 0.01941,-0.01665 a 4.2599591,4.2599591 0 0 1 0.202462,0.123417 v 0.115097 c 0.04551,-0.01264 0.09229,-0.01679 0.13867,-0.02357 a 4.2599591,4.2599591 0 0 1 0.04854,0.03606 l -0.165018,0.120643 -0.02219,0.110937 -0.288434,0.24406 -0.288436,-0.06656 v -0.177498 l -0.133123,0.08875 0.06657,0.15531 h -0.221873 l -0.110937,0.199686 -0.133123,0.155311 -0.266247,0.04438 0.15531,0.155311 0.04438,0.15531 h -0.199685 l -0.244061,0.133125 v 0.39937 h 0.110937 l 0.110936,0.110937 0.24406,-0.110937 0.08875,-0.24406 0.177499,-0.110936 0.02219,-0.08875 0.288434,-0.06657 0.155312,0.177499 0.177498,0.08875 -0.110936,0.199686 0.155311,-0.04438 0.08875,-0.199685 -0.199686,-0.221874 h 0.08875 l 0.177498,0.155312 0.04438,0.221873 0.155311,0.199685 0.04438,-0.288434 0.08875,-0.04438 c 0.09395,0.09952 0.164926,0.220808 0.24406,0.332809 l 0.310622,0.02219 0.155311,0.110937 -0.06657,0.110937 -0.177498,0.15531 h -0.244091 l -0.332808,-0.110936 -0.155312,0.02219 -0.133123,0.133124 -0.354997,-0.354996 -0.24406,-0.06656 -0.354997,0.04438 -0.332809,0.08875 c -0.18127,0.209679 -0.360924,0.42567 -0.532495,0.643431 l -0.199686,0.510307 0.08875,0.08875 -0.177498,0.266248 0.199685,0.465932 c 0.161585,0.186502 0.326773,0.36805 0.488121,0.554683 l 0.244061,-0.199686 0.08875,0.110936 0.266246,-0.15531 0.08875,0.08875 h 0.244061 l 0.155311,0.177499 -0.08875,0.310621 0.177498,0.199686 -0.02219,0.354996 0.155311,0.266248 -0.110937,0.221873 c -0.0095,0.16148 -0.02219,0.326614 -0.02219,0.48812 0.07788,0.218801 0.170523,0.423055 0.244061,0.643431 l 0.01387,0.10955 a 4.2599591,4.2599591 0 0 1 -2.210408,0.622631 4.2599591,4.2599591 0 0 1 -1.744476,-0.378571 l 0.169179,-0.464546 -0.04438,-0.110936 0.110937,-0.199687 0.288434,-0.06656 0.133124,-0.332809 -0.02219,-0.443746 0.221874,-0.310622 0.02219,-0.310622 C 20.13972,20.953718 19.855502,20.798687 19.554994,20.640966 l -0.155311,-0.310622 -0.266248,-0.06657 -0.15531,-0.399371 -0.354997,0.04438 -0.332809,-0.24406 -0.33281,0.310623 v 0.04438 c -0.100466,-0.02959 -0.221166,-0.03263 -0.310621,-0.08875 l -0.06656,-0.221873 V 19.48723 l -0.221873,0.02219 c 0.01847,-0.149153 0.04797,-0.316807 0.06656,-0.465933 h -0.133107 l -0.133123,0.177497 -0.101229,0.05132 a 4.2599591,4.2599591 0 0 1 0.108161,-0.783489 h 0.192753 l 0.04438,-0.133123 0.266248,0.06656 0.199685,0.24406 0.04438,-0.421558 0.354996,-0.288435 0.110936,-0.332809 0.266248,-0.110937 0.155311,-0.199685 0.332809,-0.06656 0.155311,-0.266248 h -0.48812 l 0.310622,-0.133124 h 0.221873 l 0.288435,-0.110936 0.04438,0.288434 0.133124,-0.199685 -0.155311,-0.110936 0.04438,-0.110938 -0.110936,-0.110936 -0.133123,-0.02219 0.04438,-0.133124 -0.110936,-0.199686 -0.221873,0.08875 0.04438,-0.177499 -0.23574,-0.137284 a 4.2599591,4.2599591 0 0 1 0.92216,-0.456226 c 0.008,0.0056 0.01548,0.01105 0.02357,0.01664 l 0.04438,-0.04022 a 4.2599591,4.2599591 0 0 1 0.399372,-0.112323 v 0.0416 l -0.177499,0.199685 0.24406,0.488121 0.177498,-0.08875 0.199686,-0.33281 c 0.297831,-0.09395 0.584199,-0.202862 0.865304,-0.332809 l -0.02219,0.133124 0.133123,0.08875 0.244061,-0.177498 z m 0.221874,0.544976 v 0.133124 l 0.08875,0.110936 v 0.199685 l -0.04438,0.288435 0.221873,-0.04438 0.177498,-0.155311 -0.155311,-0.155312 c -0.04866,-0.132214 -0.0944,-0.250373 -0.155311,-0.377183 z m -3.272625,0.15115 -0.166405,0.314783 0.02219,0.110937 -0.199685,0.08875 -0.133124,0.288434 -0.04438,-0.266247 -0.08598,-0.0319 a 4.2599591,4.2599591 0 0 1 0.607378,-0.504761 z m 3.072939,0.137284 -0.133124,0.04438 0.02219,0.266248 0.199686,-0.110936 z M 25.434635,18.425 a 4.2599591,4.2599591 0 0 1 0.05269,0.237126 l -0.05269,-0.04022 z m -0.865305,0.0416 0.199686,0.244059 0.266247,0.554683 0.155311,0.177499 -0.08875,0.199685 0.155312,0.177498 c -0.06481,0.0044 -0.133073,0 -0.199686,0 -0.121012,-0.259451 -0.21847,-0.527314 -0.310622,-0.798742 l -0.155312,-0.177499 -0.08875,-0.332809 z m 0.995655,1.063603 a 4.2599591,4.2599591 0 0 1 -0.01248,0.253766 c -0.09189,0.01354 -0.181472,0.02939 -0.273179,0.03606 l 0.221873,-0.24406 z m -8.510212,0.135897 0.237127,0.06517 0.155312,0.221873 0.266247,0.199685 0.133123,-0.04438 0.110936,0.06657 v 0.02219 l -0.133123,0.421559 -0.110936,0.15531 0.02219,0.08875 -0.08875,0.33281 0.33281,0.599057 0.332808,0.310622 0.155312,0.199685 -0.01525,0.314782 a 4.2599591,4.2599591 0 0 1 -1.3978,-2.953682 z m 8.446424,0.526947 a 4.2599591,4.2599591 0 0 1 -0.510308,1.404733 v -0.490896 l 0.177498,-0.377184 0.199686,-0.221873 z"
     id="path6534"
     inkscape:label="network-workgroup" /><path
     sodipodi:r2="3.8276224"
     sodipodi:cy="180.96373"
     inkscape:randomized="0"
     transform="matrix(0.84848624,-0.00706187,0.00706187,0.84848624,-426.99265,-129.75697)"
     inkscape:flatsided="false"
     inkscape:rounded="0.2104596"
     sodipodi:type="star"
     d="m 530.9488,186.70897 c -0.77941,0.55189 -3.15759,-1.90601 -4.11253,-1.9179 -0.95532,-0.0119 -3.39494,2.38585 -4.16096,1.8149 -0.76573,-0.57072 0.83698,-3.59203 0.55319,-4.50391 -0.2839,-0.91223 -3.31818,-2.49151 -3.01189,-3.39647 0.30617,-0.90461 3.67487,-0.31399 4.45442,-0.86567 0.77986,-0.5519 1.3442,-3.92569 2.29952,-3.91404 0.95494,0.0116 1.43421,3.39798 2.19979,3.9689 0.76588,0.57114 4.14893,0.0653 4.43307,0.97746 0.28402,0.9118 -2.78848,2.41405 -3.09488,3.31858 -0.30652,0.90489 1.21999,3.96605 0.44027,4.51815 z"
     inkscape:transform-center-x="-0.007647985"
     id="path11922"
     inkscape:transform-center-y="-0.56304291"
     sodipodi:r1="7.0383992"
     sodipodi:arg1="0.95492637"
     sodipodi:cx="526.88293"
     style="color:#000000;display:none;overflow:visible;visibility:visible;fill:#4a4a4a;fill-opacity:1;fill-rule:nonzero;stroke:none;stroke-width:2;marker:none;enable-background:accumulate"
     sodipodi:arg2="1.5829876"
     sodipodi:sides="5"
     inkscape:label="user-bookmarks" /><path
     style="display:none;opacity:1;fill:#4a4a4a;fill-opacity:1;stroke:none;stroke-width:1.64738;stroke-linecap:butt;stroke-linejoin:round;stroke-miterlimit:4;stroke-dasharray:none;stroke-dashoffset:0;stroke-opacity:1"
     d="m 16.380167,24.495499 c -0.456324,0 -0.82369,-0.367366 -0.82369,-0.82369 v -8.236896 c 0,-0.456324 0.367366,-0.82369 0.82369,-0.82369 h 9.884275 c 0.456324,0 0.82369,0.367366 0.82369,0.82369 v 8.236896 c 0,0.456324 -0.367366,0.82369 -0.82369,0.82369 z m 0.823689,-0.82369 h 8.236897 c 0.456324,0 0.823689,-0.183682 0.823689,-0.411844 0,-0.228162 -0.367365,-0.411845 -0.823689,-0.411845 h -8.236897 c -0.456324,0 -0.823689,0.183683 -0.823689,0.411845 0,0.228162 0.367365,0.411844 0.823689,0.411844 z"
     id="rect4149"
     inkscape:label="user-desktop" /><path
     style="display:none;fill:#4a4a4a;fill-opacity:1;stroke:none;stroke-width:0.714831"
     d="m 21.336249,14.492409 -5.718645,5.740982 h 1.429662 v 4.266645 h 8.533289 V 20.25573 h 1.474338 L 24.910402,18.088899 V 15.92207 h -1.429661 v 0.737169 z"
     id="Symbol"
     inkscape:label="user-home" /></svg>
